<svg width="62" height="63" viewBox="0 0 62 63" fill="none" xmlns="http://www.w3.org/2000/svg">
<g clip-path="url(#clip0)">
<path d="M60.5625 17.4977L41.2264 9.90239C40.7575 9.7183 40.2327 9.96055 40.054 10.4431C39.8754 10.9262 40.1105 11.4669 40.5793 11.651L57.6897 18.372L45.8449 23.0251L30.9481 16.0759C30.491 15.8625 29.9531 16.0716 29.7464 16.5421C29.5393 17.0132 29.7422 17.5673 30.1989 17.7808L43.454 23.9643L30.5735 29.0237L3.45734 18.372L30.5735 7.72023L37.2559 10.3456C37.7238 10.5292 38.2491 10.2874 38.4282 9.80434C38.6069 9.32176 38.3718 8.78103 37.9029 8.59694L30.8973 5.84473C30.6888 5.76302 30.4583 5.76254 30.2498 5.84473L0.584543 17.4977C0.232791 17.6361 0 17.9841 0 18.372V22.645C0 23.0328 0.232791 23.3808 0.584543 23.5193L9.84813 27.1578V30.4003C9.84813 30.917 10.2545 31.3361 10.756 31.3361C11.2579 31.3361 11.6643 30.917 11.6643 30.4003V27.8716L30.2498 35.1722C30.3543 35.213 30.4639 35.2337 30.5735 35.2337C30.6832 35.2337 30.7928 35.213 30.8973 35.1722L44.9067 29.6692V44.4771C40.5084 46.8559 35.5764 48.1306 30.5735 48.1306C23.7456 48.1306 17.0483 45.759 11.6643 41.4432V34.1431C11.6643 33.6264 11.2579 33.2073 10.756 33.2073C10.2545 33.2073 9.84813 33.6264 9.84813 34.1431V41.8965C9.84813 42.1806 9.97316 42.4493 10.1882 42.6266C15.9501 47.3827 23.19 50.0017 30.5735 50.0017C35.5531 50.0017 40.4664 48.8088 44.9067 46.5742V50.3613C43.4433 50.7732 42.3642 52.1541 42.3642 53.7907C42.3642 55.7508 43.9121 57.3461 45.8146 57.3461C47.7175 57.3461 49.2654 55.7508 49.2654 53.7907C49.2654 52.1541 48.1863 50.7732 46.7229 50.3613V45.586C48.2031 44.7184 49.6213 43.7312 50.9593 42.6266C51.1744 42.4493 51.2999 42.1806 51.2999 41.8965V27.1573L60.5625 23.5188C60.9143 23.3808 61.1471 23.0328 61.1471 22.6445V18.372C61.1471 17.9841 60.9143 17.6361 60.5625 17.4977ZM47.4492 53.7907C47.4492 54.7189 46.7159 55.4744 45.8146 55.4744C44.9137 55.4744 44.1804 54.7189 44.1804 53.7907C44.1804 52.8621 44.9137 52.1065 45.8146 52.1065C46.7159 52.1065 47.4492 52.8621 47.4492 53.7907ZM1.81614 19.7303L29.6652 30.6699V32.9396L1.81614 21.9999V19.7303ZM31.4818 32.9396V30.6699L44.9067 25.3962V27.6663L31.4818 32.9396ZM49.4832 41.4428C48.5973 42.1532 47.675 42.8097 46.7229 43.4125V28.9554L49.4832 27.8711V41.4428ZM46.7229 26.9526V24.6829L59.3309 19.7303V21.9999L46.7229 26.9526Z" fill="#141414" stroke="white" stroke-width="0.25"/>
</g>
<defs>
<clipPath id="clip0">
<rect width="61.1471" height="63" fill="white"/>
</clipPath>
</defs>
</svg>
