<?xml version="1.0" encoding="utf-8"?><svg xmlns="http://www.w3.org/2000/svg" xmlns:xlink="http://www.w3.org/1999/xlink"><symbol fill="none" viewBox="0 0 19 12" id="arrow" xmlns="http://www.w3.org/2000/svg"><path d="M18.53 6.545a.75.75 0 000-1.06L13.757.71a.75.75 0 00-1.06 1.061l4.242 4.243-4.242 4.242a.75.75 0 001.06 1.061l4.773-4.773zM0 6.765h18v-1.5H0v1.5z" fill="#fff"/></symbol><symbol fill="none" viewBox="0 0 12 11" id="arrow-controls" xmlns="http://www.w3.org/2000/svg"><path d="M5.47 10.545a.75.75 0 001.06 0l4.773-4.773a.75.75 0 10-1.06-1.06L6 8.953 1.757 4.711a.75.75 0 00-1.06 1.061l4.773 4.773zM5.25.015v10h1.5v-10h-1.5z" fill="#141414"/></symbol><symbol fill="none" viewBox="0 0 46 47" id="play" xmlns="http://www.w3.org/2000/svg"><path d="M45.25 23.015c0 12.288-9.962 22.25-22.25 22.25S.75 35.303.75 23.015C.75 10.726 10.712.765 23 .765s22.25 9.961 22.25 22.25z" fill="#fff" stroke="#FF5C00" stroke-width="1.5"/><path d="M19.5 18.319l9 5.196-9 5.196V18.319z" stroke="#FF5C00" stroke-width="1.5"/></symbol></svg>