<svg width="14" height="25" viewBox="0 0 14 25" fill="none" xmlns="http://www.w3.org/2000/svg">
<path d="M3.76604 9.24446H4.36604V8.64446V5.9212C4.36604 4.25457 4.88957 2.93831 5.76514 2.0416C6.63922 1.14642 7.91709 0.614873 9.53251 0.614771C9.53266 0.614771 9.53282 0.614771 9.53298 0.614771L12.5406 0.619588V4.06236L10.5501 4.06306C10.55 4.06306 10.5499 4.06306 10.5499 4.06306C9.77907 4.06309 9.12478 4.2069 8.70111 4.68588C8.29288 5.14741 8.23706 5.77457 8.23706 6.33592V8.64446V9.24446H8.83706H12.3945L12.3931 12.9692H8.83706H8.23706V13.5692V23.4148H4.36604V13.5692V12.9692H3.76604H0.740625V9.24446H3.76604ZM12.6506 4.06232H12.6504H12.6506Z" stroke="#141414" stroke-width="1.2"/>
</svg>
